# xmcd
#
# Track frame offsets:
# 150
# 19295
# 29242
# 53927
# 71357
# 89535
# 110775
# 128360
# 148535
# 163909
# 183552
# 200605
# 219423
# 238650
# 258043
# 276255
# 295243
# 317309
#
# Disc length: 4535 seconds
#
#
# Revision: 0
# Processed by: cddbd v1.4PL0 Copyright (c) Steve Scherf et al.
# Submitted via: FreeRIP 2.00 
#
DISCID=1311b512
DTITLE=陶? - 黑色柳丁
DYEAR=1900
DGENRE=
TTITLE0=黑色柳丁
TTITLE1=今天晚間新聞
TTITLE2=drar god
TTITLE3=angeb
TTITLE4=討厭紅樓夢
TTITLE5=蝴蝶
TTITLE6=宮保雞丁
TTITLE7=melody
TTITLE8=月亮代表我的心
TTITLE9=二十二
TTITLE10=my anata
TTITLE11=搖籃曲
TTITLE12=夜來香
TTITLE13=馬戲團
TTITLE14=流沙
TTITLE15=i'm ok
TTITLE16=小鎮姑娘
TTITLE17=我自己
EXTD=
EXTT0=
EXTT1=
EXTT2=
EXTT3=
EXTT4=
EXTT5=
EXTT6=
EXTT7=
EXTT8=
EXTT9=
EXTT10=
EXTT11=
EXTT12=
EXTT13=
EXTT14=
EXTT15=
EXTT16=
EXTT17=
PLAYORDER=
